<svg width="128" height="128" xmlns="http://www.w3.org/2000/svg">
  <!-- Sprite sheet med 4x4 grid av animation frames -->
  <!-- Frame 1 -->
  <rect x="0" y="0" width="32" height="32" fill="#4a90e2" stroke="#2c5aa0" stroke-width="1"/>
  <circle cx="16" cy="16" r="8" fill="#ffffff"/>
  <rect x="12" y="20" width="8" height="6" fill="#ffffff"/>
  
  <!-- Frame 2 -->
  <rect x="32" y="0" width="32" height="32" fill="#4a90e2" stroke="#2c5aa0" stroke-width="1"/>
  <circle cx="48" cy="16" r="8" fill="#ffffff"/>
  <rect x="44" y="20" width="8" height="6" fill="#ffffff"/>
  <ellipse cx="48" cy="10" rx="3" ry="2" fill="#ff6b6b"/>
  
  <!-- Frame 3 -->
  <rect x="64" y="0" width="32" height="32" fill="#4a90e2" stroke="#2c5aa0" stroke-width="1"/>
  <circle cx="80" cy="16" r="8" fill="#ffffff"/>
  <rect x="76" y="20" width="8" height="6" fill="#ffffff"/>
  <ellipse cx="80" cy="10" rx="4" ry="3" fill="#ff6b6b"/>
  
  <!-- Frame 4 -->
  <rect x="96" y="0" width="32" height="32" fill="#4a90e2" stroke="#2c5aa0" stroke-width="1"/>
  <circle cx="112" cy="16" r="8" fill="#ffffff"/>
  <rect x="108" y="20" width="8" height="6" fill="#ffffff"/>
  
  <!-- Frame 5 -->
  <rect x="0" y="32" width="32" height="32" fill="#4a90e2" stroke="#2c5aa0" stroke-width="1"/>
  <circle cx="16" cy="48" r="8" fill="#ffffff"/>
  <rect x="12" y="52" width="8" height="6" fill="#ffffff"/>
  
  <!-- Frame 6 -->
  <rect x="32" y="32" width="32" height="32" fill="#4a90e2" stroke="#2c5aa0" stroke-width="1"/>
  <circle cx="48" cy="48" r="8" fill="#ffffff"/>
  <rect x="44" y="52" width="8" height="6" fill="#ffffff"/>
  
  <!-- Frame 7 -->
  <rect x="64" y="32" width="32" height="32" fill="#4a90e2" stroke="#2c5aa0" stroke-width="1"/>
  <circle cx="80" cy="48" r="8" fill="#ffffff"/>
  <rect x="76" y="52" width="8" height="6" fill="#ffffff"/>
  
  <!-- Frame 8 -->
  <rect x="96" y="32" width="32" height="32" fill="#4a90e2" stroke="#2c5aa0" stroke-width="1"/>
  <circle cx="112" cy="48" r="8" fill="#ffffff"/>
  <rect x="108" y="52" width="8" height="6" fill="#ffffff"/>
  
  <!-- Frame 9 -->
  <rect x="0" y="64" width="32" height="32" fill="#4a90e2" stroke="#2c5aa0" stroke-width="1"/>
  <circle cx="16" cy="80" r="8" fill="#ffffff"/>
  <rect x="12" y="84" width="8" height="6" fill="#ffffff"/>
  
  <!-- Frame 10 -->
  <rect x="32" y="64" width="32" height="32" fill="#4a90e2" stroke="#2c5aa0" stroke-width="1"/>
  <circle cx="48" cy="80" r="8" fill="#ffffff"/>
  <rect x="44" y="84" width="8" height="6" fill="#ffffff"/>
  
  <!-- Frame 11 -->
  <rect x="64" y="64" width="32" height="32" fill="#4a90e2" stroke="#2c5aa0" stroke-width="1"/>
  <circle cx="80" cy="80" r="8" fill="#ffffff"/>
  <rect x="76" y="84" width="8" height="6" fill="#ffffff"/>
  
  <!-- Frame 12 -->
  <rect x="96" y="64" width="32" height="32" fill="#4a90e2" stroke="#2c5aa0" stroke-width="1"/>
  <circle cx="112" cy="80" r="8" fill="#ffffff"/>
  <rect x="108" y="84" width="8" height="6" fill="#ffffff"/>
  
  <!-- Frame 13 -->
  <rect x="0" y="96" width="32" height="32" fill="#4a90e2" stroke="#2c5aa0" stroke-width="1"/>
  <circle cx="16" cy="112" r="8" fill="#ffffff"/>
  <rect x="12" y="116" width="8" height="6" fill="#ffffff"/>
  
  <!-- Frame 14 -->
  <rect x="32" y="96" width="32" height="32" fill="#4a90e2" stroke="#2c5aa0" stroke-width="1"/>
  <circle cx="48" cy="112" r="8" fill="#ffffff"/>
  <rect x="44" y="116" width="8" height="6" fill="#ffffff"/>
  
  <!-- Frame 15 -->
  <rect x="64" y="96" width="32" height="32" fill="#4a90e2" stroke="#2c5aa0" stroke-width="1"/>
  <circle cx="80" cy="112" r="8" fill="#ffffff"/>
  <rect x="76" y="116" width="8" height="6" fill="#ffffff"/>
  
  <!-- Frame 16 -->
  <rect x="96" y="96" width="32" height="32" fill="#4a90e2" stroke="#2c5aa0" stroke-width="1"/>
  <circle cx="112" cy="112" r="8" fill="#ffffff"/>
  <rect x="108" y="116" width="8" height="6" fill="#ffffff"/>
</svg>



